<mxfile host="app.diagrams.net" agent="Mozilla/5.0 (Windows NT 10.0; Win64; x64) AppleWebKit/537.36 (KHTML, like Gecko) Chrome/125.0.0.0 Safari/537.36" version="24.8.0">
  <diagram name="第 1 页" id="67XEVjzFN6V_1myFa1WP">
    <mxGraphModel dx="1389" dy="138" grid="1" gridSize="10" guides="1" tooltips="1" connect="1" arrows="1" fold="1" page="0" pageScale="1" pageWidth="827" pageHeight="1169" math="0" shadow="0">
      <root>
        <mxCell id="0" />
        <mxCell id="1" parent="0" />
        <mxCell id="gv2YaSpfpl3k-5ACo8h_-53" style="edgeStyle=orthogonalEdgeStyle;rounded=0;orthogonalLoop=1;jettySize=auto;html=1;exitX=1;exitY=0.5;exitDx=0;exitDy=0;" edge="1" parent="1" source="gv2YaSpfpl3k-5ACo8h_-4">
          <mxGeometry relative="1" as="geometry">
            <mxPoint x="-40" y="443.37931034482756" as="targetPoint" />
          </mxGeometry>
        </mxCell>
        <mxCell id="gv2YaSpfpl3k-5ACo8h_-4" value="文本" style="text;html=1;align=center;verticalAlign=middle;whiteSpace=wrap;rounded=0;" vertex="1" parent="1">
          <mxGeometry x="-159" y="428.5" width="48" height="30" as="geometry" />
        </mxCell>
        <mxCell id="gv2YaSpfpl3k-5ACo8h_-5" style="edgeStyle=orthogonalEdgeStyle;rounded=0;orthogonalLoop=1;jettySize=auto;html=1;exitX=1;exitY=0.5;exitDx=0;exitDy=0;entryX=0;entryY=0.5;entryDx=0;entryDy=0;" edge="1" parent="1" source="gv2YaSpfpl3k-5ACo8h_-6" target="gv2YaSpfpl3k-5ACo8h_-8">
          <mxGeometry relative="1" as="geometry" />
        </mxCell>
        <mxCell id="gv2YaSpfpl3k-5ACo8h_-6" value="打分" style="rounded=0;whiteSpace=wrap;html=1;fillColor=#fff2cc;strokeColor=#d6b656;" vertex="1" parent="1">
          <mxGeometry x="-39" y="435.5" width="57" height="45" as="geometry" />
        </mxCell>
        <mxCell id="gv2YaSpfpl3k-5ACo8h_-7" style="edgeStyle=orthogonalEdgeStyle;rounded=0;orthogonalLoop=1;jettySize=auto;html=1;exitX=1;exitY=0.5;exitDx=0;exitDy=0;entryX=0;entryY=0.5;entryDx=0;entryDy=0;" edge="1" parent="1" source="gv2YaSpfpl3k-5ACo8h_-8" target="gv2YaSpfpl3k-5ACo8h_-11">
          <mxGeometry relative="1" as="geometry" />
        </mxCell>
        <mxCell id="gv2YaSpfpl3k-5ACo8h_-8" value="分析打分结果分布" style="rounded=0;whiteSpace=wrap;html=1;" vertex="1" parent="1">
          <mxGeometry x="75" y="435.5" width="57" height="45" as="geometry" />
        </mxCell>
        <mxCell id="gv2YaSpfpl3k-5ACo8h_-9" style="edgeStyle=orthogonalEdgeStyle;rounded=0;orthogonalLoop=1;jettySize=auto;html=1;exitX=1;exitY=0.5;exitDx=0;exitDy=0;" edge="1" parent="1" source="gv2YaSpfpl3k-5ACo8h_-11" target="gv2YaSpfpl3k-5ACo8h_-12">
          <mxGeometry relative="1" as="geometry" />
        </mxCell>
        <mxCell id="gv2YaSpfpl3k-5ACo8h_-10" style="edgeStyle=orthogonalEdgeStyle;rounded=0;orthogonalLoop=1;jettySize=auto;html=1;exitX=0.5;exitY=1;exitDx=0;exitDy=0;entryX=0.5;entryY=0;entryDx=0;entryDy=0;" edge="1" parent="1">
          <mxGeometry relative="1" as="geometry">
            <mxPoint x="227" y="483" as="sourcePoint" />
            <mxPoint x="225.49999999999977" y="519" as="targetPoint" />
          </mxGeometry>
        </mxCell>
        <mxCell id="gv2YaSpfpl3k-5ACo8h_-11" value="分布满足要求？" style="rhombus;whiteSpace=wrap;html=1;" vertex="1" parent="1">
          <mxGeometry x="189" y="433" width="74" height="50" as="geometry" />
        </mxCell>
        <mxCell id="gv2YaSpfpl3k-5ACo8h_-12" value="优化后的打分标准" style="text;html=1;align=center;verticalAlign=middle;whiteSpace=wrap;rounded=0;" vertex="1" parent="1">
          <mxGeometry x="410" y="443" width="70" height="30" as="geometry" />
        </mxCell>
        <mxCell id="gv2YaSpfpl3k-5ACo8h_-52" style="edgeStyle=orthogonalEdgeStyle;rounded=0;orthogonalLoop=1;jettySize=auto;html=1;exitX=0;exitY=0.5;exitDx=0;exitDy=0;" edge="1" parent="1" source="gv2YaSpfpl3k-5ACo8h_-18">
          <mxGeometry relative="1" as="geometry">
            <mxPoint x="-80" y="470" as="targetPoint" />
          </mxGeometry>
        </mxCell>
        <mxCell id="gv2YaSpfpl3k-5ACo8h_-18" value="修改打分标准" style="rounded=0;whiteSpace=wrap;html=1;fillColor=#fff2cc;strokeColor=#d6b656;" vertex="1" parent="1">
          <mxGeometry x="-39" y="519" width="57" height="45" as="geometry" />
        </mxCell>
        <mxCell id="gv2YaSpfpl3k-5ACo8h_-19" value="&lt;p style=&quot;line-height: 100%; font-size: 10px;&quot;&gt;打分结果&lt;/p&gt;" style="text;html=1;align=center;verticalAlign=middle;whiteSpace=wrap;rounded=0;spacing=2;fontSize=10;" vertex="1" parent="1">
          <mxGeometry x="23" y="444" width="44" height="10" as="geometry" />
        </mxCell>
        <mxCell id="gv2YaSpfpl3k-5ACo8h_-20" value="&lt;p style=&quot;line-height: 100%; font-size: 10px;&quot;&gt;类别分布&lt;/p&gt;" style="text;html=1;align=center;verticalAlign=middle;whiteSpace=wrap;rounded=0;spacing=2;fontSize=10;" vertex="1" parent="1">
          <mxGeometry x="138" y="444" width="44" height="10" as="geometry" />
        </mxCell>
        <mxCell id="gv2YaSpfpl3k-5ACo8h_-21" value="&lt;p style=&quot;line-height: 100%; font-size: 10px;&quot;&gt;Y&lt;/p&gt;" style="text;html=1;align=center;verticalAlign=middle;whiteSpace=wrap;rounded=0;spacing=2;fontSize=10;" vertex="1" parent="1">
          <mxGeometry x="274" y="444.5" width="15" height="10" as="geometry" />
        </mxCell>
        <mxCell id="gv2YaSpfpl3k-5ACo8h_-22" value="&lt;p style=&quot;line-height: 100%; font-size: 10px;&quot;&gt;N&lt;/p&gt;" style="text;html=1;align=center;verticalAlign=middle;whiteSpace=wrap;rounded=0;spacing=2;fontSize=10;" vertex="1" parent="1">
          <mxGeometry x="226" y="491" width="15" height="10" as="geometry" />
        </mxCell>
        <mxCell id="gv2YaSpfpl3k-5ACo8h_-49" style="edgeStyle=orthogonalEdgeStyle;rounded=0;orthogonalLoop=1;jettySize=auto;html=1;exitX=1;exitY=0.5;exitDx=0;exitDy=0;" edge="1" parent="1">
          <mxGeometry relative="1" as="geometry">
            <mxPoint x="-40" y="469.1379310344828" as="targetPoint" />
            <mxPoint x="-120.00000000000023" y="469" as="sourcePoint" />
          </mxGeometry>
        </mxCell>
        <mxCell id="gv2YaSpfpl3k-5ACo8h_-37" value="&lt;span style=&quot;color: rgb(0, 0, 0); font-family: Helvetica; font-size: 12px; font-style: normal; font-variant-ligatures: normal; font-variant-caps: normal; font-weight: 400; letter-spacing: normal; orphans: 2; text-align: center; text-indent: 0px; text-transform: none; widows: 2; word-spacing: 0px; -webkit-text-stroke-width: 0px; white-space: normal; background-color: rgb(255, 255, 255); text-decoration-thickness: initial; text-decoration-style: initial; text-decoration-color: initial; display: inline !important; float: none;&quot;&gt;初始打分标准&lt;/span&gt;" style="text;whiteSpace=wrap;html=1;" vertex="1" parent="1">
          <mxGeometry x="-196.63" y="453.5" width="80.63" height="27" as="geometry" />
        </mxCell>
        <mxCell id="gv2YaSpfpl3k-5ACo8h_-42" style="edgeStyle=orthogonalEdgeStyle;rounded=0;orthogonalLoop=1;jettySize=auto;html=1;exitX=1;exitY=0.5;exitDx=0;exitDy=0;entryX=0;entryY=0.5;entryDx=0;entryDy=0;" edge="1" parent="1" source="gv2YaSpfpl3k-5ACo8h_-39" target="gv2YaSpfpl3k-5ACo8h_-41">
          <mxGeometry relative="1" as="geometry" />
        </mxCell>
        <mxCell id="gv2YaSpfpl3k-5ACo8h_-46" style="edgeStyle=orthogonalEdgeStyle;rounded=0;orthogonalLoop=1;jettySize=auto;html=1;exitX=0;exitY=0.5;exitDx=0;exitDy=0;" edge="1" parent="1" source="gv2YaSpfpl3k-5ACo8h_-39">
          <mxGeometry relative="1" as="geometry">
            <mxPoint x="20" y="544.7586206896551" as="targetPoint" />
          </mxGeometry>
        </mxCell>
        <mxCell id="gv2YaSpfpl3k-5ACo8h_-39" value="超过最大迭代次数？" style="rhombus;whiteSpace=wrap;html=1;" vertex="1" parent="1">
          <mxGeometry x="189" y="520" width="74" height="50" as="geometry" />
        </mxCell>
        <mxCell id="gv2YaSpfpl3k-5ACo8h_-44" style="edgeStyle=orthogonalEdgeStyle;rounded=0;orthogonalLoop=1;jettySize=auto;html=1;exitX=0.5;exitY=0;exitDx=0;exitDy=0;entryX=0;entryY=0.5;entryDx=0;entryDy=0;" edge="1" parent="1" source="gv2YaSpfpl3k-5ACo8h_-41" target="gv2YaSpfpl3k-5ACo8h_-12">
          <mxGeometry relative="1" as="geometry" />
        </mxCell>
        <mxCell id="gv2YaSpfpl3k-5ACo8h_-41" value="取最优打分标准" style="rounded=0;whiteSpace=wrap;html=1;" vertex="1" parent="1">
          <mxGeometry x="310" y="522.5" width="57" height="45" as="geometry" />
        </mxCell>
        <mxCell id="gv2YaSpfpl3k-5ACo8h_-45" value="&lt;p style=&quot;line-height: 100%; font-size: 10px;&quot;&gt;Y&lt;/p&gt;" style="text;html=1;align=center;verticalAlign=middle;whiteSpace=wrap;rounded=0;spacing=2;fontSize=10;" vertex="1" parent="1">
          <mxGeometry x="274" y="532.5" width="15" height="10" as="geometry" />
        </mxCell>
      </root>
    </mxGraphModel>
  </diagram>
</mxfile>
